<svg xmlns="http://www.w3.org/2000/svg" viewBox="0 0 2048 2048">
<path fill="#0a0a0a" d="M 0 0 L 2048 0 L 2048 2048 L 0 2048 z"/>
<path fill="#fafafa" d="M 1013.67 324.486 C 1016.55 324.41 1015.36 323.895 1017.47 325.598 L 1017.26 453.681 C 878.446 455.942 745.241 508.849 642.705 602.449 C 537.761 700.178 475.633 835.379 469.824 978.663 C 463.583 1124.52 515.801 1266.84 614.894 1374.04 C 714.237 1483.14 852.881 1548.25 1000.27 1555.03 C 1148.9 1561.59 1294.01 1508.55 1403.37 1407.68 C 1515.61 1303.83 1574.89 1164.7 1580.81 1012.84 L 1710.92 1012.86 C 1707.39 1096.55 1698.31 1151.83 1670.97 1231.68 C 1636.67 1323.91 1592.75 1396.25 1525.66 1468.69 C 1400.99 1604.02 1226.98 1683.3 1043.06 1688.56 C 865.7 1695.24 684.172 1623.16 557.659 1501.46 C 107.287 1068.21 391.41 345.785 1013.67 324.486 z"/>
<path fill="#fafafa" d="M 1004.88 769.907 C 1132.91 757.952 1246.36 852.137 1258.15 980.182 C 1269.95 1108.23 1175.63 1221.56 1047.57 1233.2 C 919.729 1244.81 806.641 1150.69 794.864 1022.87 C 783.087 895.045 877.073 781.841 1004.88 769.907 z"/>
<path fill="#0a0a0a" d="M 1011.68 838.368 C 1101.83 829.775 1181.86 895.922 1190.39 986.074 C 1198.92 1076.23 1132.71 1156.21 1042.56 1164.67 C 952.487 1173.13 872.601 1107.01 864.08 1016.95 C 855.559 926.885 921.626 846.953 1011.68 838.368 z"/>
<path fill="#fafafa" d="M 677.252 592.657 C 689.085 608.026 704.484 627.421 717.171 642.034 C 707.758 649.72 698.69 657.82 689.995 666.309 C 601.676 753.471 551.477 872.067 550.381 996.148 C 548.614 1122.62 597.801 1244.49 686.864 1334.3 C 775.271 1423.91 895.493 1474.97 1021.36 1476.37 C 1191.16 1477.64 1350.33 1388.33 1435.7 1241.33 C 1474.98 1173.68 1499.52 1091.19 1500.08 1012.68 L 1565.92 1012.82 C 1565.28 1025.73 1564.33 1038.62 1563.07 1051.48 C 1549.33 1194.87 1479.07 1326.9 1367.81 1418.39 C 1256.31 1509.23 1113.31 1552.09 970.222 1537.56 C 828.22 1522.68 697.809 1452.41 607.273 1342.01 C 516.028 1232.05 472.862 1090.01 487.5 947.878 C 500.861 808.908 569.172 681.03 677.252 592.657 z"/>
<path fill="#8b5cf6" d="M 1032.62 324.442 C 1213.59 329.309 1376.4 391.075 1507.09 518.4 C 1636.83 644.305 1710.38 817.175 1711.11 997.965 L 1580.97 997.826 C 1578.76 854.988 1528.43 727.446 1429.3 623.991 C 1324.87 517.087 1182.34 455.927 1032.91 453.908 C 1032.21 420.568 1032.94 386.99 1032.48 353.619 C 1032.35 344.041 1032.19 333.979 1032.62 324.442 z"/>
<path fill="#8b5cf6" d="M 677.252 592.657 C 798.622 497.174 940.171 454.832 1094.31 473.33 C 1235.89 490.859 1364.95 563.206 1453.77 674.836 C 1526.02 767.081 1565.49 880.756 1565.97 997.924 L 1500.12 997.717 C 1497.9 874.498 1453.01 754.855 1363.39 668.284 C 1270.18 577.079 1143.99 527.543 1013.63 530.987 C 905.061 533.225 800.494 572.393 717.171 642.034 C 704.484 627.421 689.085 608.026 677.252 592.657 z"/>
</svg>
